<svg width="556" height="403" viewBox="0 0 556 403" fill="none" xmlns="http://www.w3.org/2000/svg">
<g filter="url(#filter0_d_4_6)">
<path opacity="0.6" d="M322.251 69.5496C287.183 68.3301 253.758 57.0018 221.888 44.6102C190.019 32.2187 158.431 18.4866 124.185 11.9205C102.166 7.69252 76.9852 7.09788 59.2475 18.9099C42.1746 30.2735 36.6599 49.8914 33.6935 68.0933C31.4625 81.79 30.1682 96.2023 36.2671 109.027C40.5126 117.927 48.0469 125.41 53.2594 133.936C71.3899 163.603 58.5726 200.188 38.9212 229.179C29.7048 242.785 19.0129 255.731 11.9017 270.198C4.79048 284.666 1.49677 301.24 7.72158 315.995C13.891 330.609 28.5868 341.605 44.5114 349.33C76.8542 365.007 114.964 369.492 152.126 372.062C234.388 377.691 317.094 375.252 399.572 372.813C430.097 371.906 460.758 370.994 490.784 366.262C507.459 363.637 524.678 359.474 536.785 349.426C552.151 336.666 555.963 315.068 545.664 299.068C528.39 272.239 480.631 265.572 468.554 236.778C461.911 220.929 468.735 203.272 478.395 188.572C499.109 157.042 533.839 129.376 535.667 93.33C536.926 68.572 520.231 43.7838 494.415 32.0675C467.36 19.7767 429.84 21.3288 409.882 41.6421C389.329 62.5702 353.209 70.623 322.251 69.5496Z" fill="#587EEC"/>
<path d="M126.436 365.36C126.436 365.36 98.7368 344.407 93.5042 317.754C91.3822 306.56 85.6903 296.356 77.2824 288.672C73.2602 285.058 68.9159 281.819 64.304 278.997" stroke="#9AB1F3" stroke-width="2" stroke-miterlimit="10"/>
<path d="M60.9146 262.206C63.342 265.492 64.4399 279.415 64.4399 279.415C64.4399 279.415 51.4615 274.301 49.029 271.02C47.8609 269.443 47.3668 267.466 47.6554 265.525C47.9439 263.583 48.9915 261.836 50.5676 260.667C52.1437 259.498 54.1193 259.004 56.0597 259.292C58.0002 259.581 59.7465 260.629 60.9146 262.206Z" fill="#587EEC"/>
<path d="M84.1922 273.131C84.4441 277.208 77.8113 289.494 77.8113 289.494C77.8113 289.494 69.6878 278.135 69.431 274.059C69.3333 272.115 70.0049 270.211 71.3003 268.76C72.5957 267.308 74.4105 266.426 76.3515 266.304C78.2925 266.182 80.2034 266.83 81.6701 268.108C83.1368 269.386 84.0411 271.191 84.1872 273.131H84.1922Z" fill="#587EEC"/>
<path d="M106.755 304.536C104.921 308.185 92.9905 315.441 92.9905 315.441C92.9905 315.441 91.7163 301.533 93.5495 297.884C94.4519 296.169 95.9914 294.876 97.8368 294.284C99.6821 293.693 101.686 293.85 103.416 294.722C105.147 295.594 106.467 297.111 107.091 298.946C107.715 300.782 107.594 302.789 106.755 304.536Z" fill="#587EEC"/>
<path d="M118.484 332.131C117.29 336.037 106.759 345.203 106.759 345.203C106.759 345.203 103.148 331.713 104.342 327.802C104.916 325.926 106.211 324.354 107.943 323.434C109.674 322.513 111.701 322.318 113.576 322.892C115.451 323.466 117.022 324.762 117.942 326.494C118.863 328.227 119.058 330.255 118.484 332.131Z" fill="#587EEC"/>
<path d="M65.8047 299.371C69.8337 299.915 82.5704 294.16 82.5704 294.16C82.5704 294.16 71.8231 285.251 67.7739 284.707C65.8305 284.445 63.8629 284.967 62.304 286.158C60.7452 287.348 59.7227 289.109 59.4616 291.054C59.2004 292.998 59.722 294.967 60.9116 296.527C62.1012 298.087 63.8613 299.11 65.8047 299.371Z" fill="#587EEC"/>
<path d="M79.9314 331.476C83.9604 330.786 94.3703 321.488 94.3703 321.488C94.3703 321.488 81.4473 316.207 77.4233 316.897C76.4599 317.055 75.5373 317.403 74.7088 317.92C73.8802 318.436 73.1622 319.112 72.5961 319.908C72.0299 320.704 71.6269 321.604 71.4103 322.556C71.1937 323.509 71.1678 324.495 71.3341 325.458C71.5003 326.42 71.8555 327.34 72.379 328.165C72.9026 328.989 73.5842 329.702 74.3844 330.261C75.1847 330.821 76.0877 331.216 77.0415 331.425C77.9953 331.633 78.9809 331.651 79.9415 331.476H79.9314Z" fill="#587EEC"/>
<path d="M97.936 360.8C102.02 360.8 113.856 353.397 113.856 353.397C113.856 353.397 102.015 346.004 97.9309 346.004C95.9701 346.004 94.0896 346.784 92.7031 348.171C91.3166 349.558 90.5377 351.44 90.5377 353.402C90.5377 355.364 91.3166 357.245 92.7031 358.633C94.0896 360.02 95.9701 360.8 97.9309 360.8H97.936Z" fill="#587EEC"/>
<path d="M395.523 184.133C395.523 184.133 412.596 153.872 438.331 145.154C449.138 141.563 458.489 134.563 464.983 125.203C468.029 120.729 470.657 115.984 472.835 111.028" stroke="#9AB1F3" stroke-width="2" stroke-miterlimit="10"/>
<path d="M488.991 105.485C486.06 108.327 472.417 111.27 472.417 111.27C472.417 111.27 475.766 97.7141 478.697 94.8669C480.112 93.5415 481.99 92.825 483.928 92.8716C485.865 92.9183 487.707 93.7243 489.056 95.1162C490.406 96.5081 491.155 98.3746 491.143 100.314C491.131 102.253 490.358 104.11 488.991 105.485Z" fill="#587EEC"/>
<path d="M481.275 129.991C477.246 130.787 464.218 125.838 464.218 125.838C464.218 125.838 474.391 116.264 478.395 115.483C479.356 115.269 480.35 115.25 481.319 115.426C482.288 115.603 483.212 115.971 484.037 116.509C484.861 117.048 485.57 117.746 486.122 118.562C486.673 119.378 487.056 120.297 487.248 121.263C487.44 122.229 487.437 123.225 487.239 124.19C487.041 125.155 486.653 126.071 486.097 126.884C485.54 127.697 484.827 128.391 483.999 128.924C483.171 129.458 482.245 129.82 481.275 129.991Z" fill="#587EEC"/>
<path d="M453.193 156.538C449.336 155.202 440.567 144.338 440.567 144.338C440.567 144.338 454.165 141.223 458.033 142.559C458.962 142.867 459.821 143.357 460.56 144.001C461.298 144.644 461.902 145.427 462.335 146.306C462.768 147.184 463.023 148.14 463.084 149.118C463.145 150.096 463.012 151.076 462.691 152.002C462.371 152.927 461.87 153.78 461.217 154.511C460.565 155.241 459.773 155.834 458.89 156.256C458.006 156.678 457.048 156.921 456.07 156.969C455.092 157.017 454.114 156.871 453.193 156.538Z" fill="#587EEC"/>
<path d="M427.388 171.837C423.359 171.172 412.903 161.925 412.903 161.925C412.903 161.925 425.791 156.553 429.815 157.218C431.752 157.537 433.483 158.612 434.627 160.208C435.771 161.804 436.235 163.789 435.916 165.727C435.598 167.665 434.523 169.397 432.928 170.541C431.334 171.686 429.35 172.151 427.413 171.832L427.388 171.837Z" fill="#587EEC"/>
<path d="M452.841 115.241C452.836 119.328 460.244 131.185 460.244 131.185C460.244 131.185 467.642 119.343 467.642 115.261C467.668 114.274 467.496 113.291 467.136 112.371C466.776 111.451 466.236 110.613 465.547 109.906C464.858 109.198 464.035 108.636 463.126 108.252C462.216 107.868 461.239 107.67 460.252 107.67C459.265 107.67 458.287 107.868 457.378 108.252C456.468 108.636 455.645 109.198 454.956 109.906C454.267 110.613 453.727 111.451 453.367 112.371C453.007 113.291 452.835 114.274 452.861 115.261L452.841 115.241Z" fill="#587EEC"/>
<path d="M422.91 133.513C424.129 137.414 434.725 146.509 434.725 146.509C434.725 146.509 438.251 132.994 437.022 129.094C436.385 127.287 435.071 125.798 433.359 124.94C431.646 124.082 429.668 123.923 427.84 124.496C426.013 125.069 424.478 126.329 423.561 128.011C422.643 129.693 422.414 131.665 422.92 133.513H422.91Z" fill="#587EEC"/>
<path d="M396.284 155.268C396.828 159.299 405.732 170.068 405.732 170.068C405.732 170.068 411.478 157.344 410.934 153.297C410.826 152.317 410.523 151.368 410.044 150.506C409.564 149.645 408.917 148.888 408.14 148.28C407.364 147.672 406.474 147.226 405.522 146.968C404.571 146.709 403.577 146.644 402.6 146.775C401.623 146.907 400.683 147.232 399.833 147.733C398.984 148.234 398.243 148.899 397.654 149.69C397.066 150.482 396.641 151.383 396.406 152.341C396.171 153.298 396.129 154.294 396.284 155.268Z" fill="#587EEC"/>
<path opacity="0.25" d="M488.991 105.485C486.06 108.327 472.417 111.27 472.417 111.27C472.417 111.27 475.766 97.7141 478.697 94.8669C480.112 93.5415 481.99 92.825 483.928 92.8716C485.865 92.9183 487.707 93.7243 489.056 95.1162C490.406 96.5081 491.155 98.3746 491.143 100.314C491.131 102.253 490.358 104.11 488.991 105.485Z" fill="black"/>
<path opacity="0.25" d="M481.275 129.991C477.246 130.787 464.218 125.838 464.218 125.838C464.218 125.838 474.391 116.264 478.395 115.483C479.356 115.269 480.35 115.25 481.319 115.426C482.288 115.603 483.212 115.971 484.037 116.509C484.861 117.048 485.57 117.746 486.122 118.562C486.673 119.378 487.056 120.297 487.248 121.263C487.44 122.229 487.437 123.225 487.239 124.19C487.041 125.155 486.653 126.071 486.097 126.884C485.54 127.697 484.827 128.391 483.999 128.924C483.171 129.458 482.245 129.82 481.275 129.991Z" fill="black"/>
<path opacity="0.25" d="M453.193 156.538C449.336 155.202 440.567 144.338 440.567 144.338C440.567 144.338 454.165 141.223 458.033 142.559C458.962 142.867 459.821 143.357 460.56 144.001C461.298 144.644 461.902 145.427 462.335 146.306C462.768 147.184 463.023 148.14 463.084 149.118C463.145 150.096 463.012 151.076 462.691 152.002C462.371 152.927 461.87 153.78 461.217 154.511C460.565 155.241 459.773 155.834 458.89 156.256C458.006 156.678 457.048 156.921 456.07 156.969C455.092 157.017 454.114 156.871 453.193 156.538Z" fill="black"/>
<path opacity="0.25" d="M427.388 171.837C423.359 171.172 412.903 161.925 412.903 161.925C412.903 161.925 425.791 156.553 429.815 157.218C431.752 157.537 433.483 158.612 434.627 160.208C435.771 161.804 436.235 163.789 435.916 165.727C435.598 167.665 434.523 169.397 432.928 170.541C431.334 171.686 429.35 172.151 427.413 171.832L427.388 171.837Z" fill="black"/>
<path opacity="0.25" d="M452.841 115.241C452.836 119.328 460.244 131.185 460.244 131.185C460.244 131.185 467.642 119.343 467.642 115.261C467.668 114.274 467.496 113.291 467.136 112.371C466.776 111.451 466.236 110.613 465.547 109.906C464.858 109.198 464.035 108.636 463.126 108.252C462.216 107.868 461.239 107.67 460.252 107.67C459.265 107.67 458.287 107.868 457.378 108.252C456.468 108.636 455.645 109.198 454.956 109.906C454.267 110.613 453.727 111.451 453.367 112.371C453.007 113.291 452.835 114.274 452.861 115.261L452.841 115.241Z" fill="black"/>
<path opacity="0.25" d="M422.91 133.513C424.129 137.414 434.725 146.509 434.725 146.509C434.725 146.509 438.251 132.994 437.022 129.094C436.385 127.287 435.071 125.798 433.359 124.94C431.646 124.082 429.668 123.923 427.84 124.496C426.013 125.069 424.478 126.329 423.561 128.011C422.643 129.693 422.414 131.665 422.92 133.513H422.91Z" fill="black"/>
<path opacity="0.25" d="M396.284 155.268C396.828 159.299 405.732 170.068 405.732 170.068C405.732 170.068 411.478 157.344 410.934 153.297C410.826 152.317 410.523 151.368 410.044 150.506C409.564 149.645 408.917 148.888 408.14 148.28C407.364 147.672 406.474 147.226 405.522 146.968C404.571 146.709 403.577 146.644 402.6 146.775C401.623 146.907 400.683 147.232 399.833 147.733C398.984 148.234 398.243 148.899 397.654 149.69C397.066 150.482 396.641 151.383 396.406 152.341C396.171 153.298 396.129 154.294 396.284 155.268Z" fill="black"/>
<path d="M396.505 183.533C396.505 183.533 399.859 148.943 419.833 130.55C428.258 122.884 433.972 112.693 436.12 101.504C437.098 96.1844 437.585 90.7865 437.576 85.3781" stroke="#9AB1F3" stroke-width="2" stroke-miterlimit="10"/>
<path d="M450.096 73.7071C448.585 77.4966 437.284 85.7207 437.284 85.7207C437.284 85.7207 434.856 71.9685 436.382 68.179C437.117 66.3594 438.544 64.9063 440.349 64.1394C442.155 63.3724 444.191 63.3546 446.009 64.0896C447.828 64.8247 449.28 66.2525 450.046 68.059C450.813 69.8654 450.831 71.9026 450.096 73.7222V73.7071Z" fill="#587EEC"/>
<path d="M452.972 99.2663C449.633 101.615 435.697 102.386 435.697 102.386C435.697 102.386 441.126 89.5153 444.465 87.167C445.257 86.574 446.16 86.146 447.12 85.9083C448.08 85.6707 449.078 85.6283 450.055 85.7835C451.032 85.9388 451.968 86.2886 452.807 86.8123C453.647 87.3359 454.372 88.0227 454.942 88.8321C455.511 89.6414 455.912 90.5569 456.121 91.5241C456.331 92.4914 456.344 93.4909 456.16 94.4633C455.976 95.4358 455.6 96.3615 455.052 97.1857C454.504 98.0098 453.797 98.7156 452.972 99.2612V99.2663Z" fill="#587EEC"/>
<path d="M438.034 134.934C433.965 135.277 421.546 128.887 421.546 128.887C421.546 128.887 432.726 120.522 436.795 120.179C438.75 120.015 440.689 120.634 442.187 121.9C443.685 123.167 444.619 124.977 444.783 126.932C444.947 128.887 444.329 130.828 443.063 132.326C441.797 133.825 439.988 134.76 438.034 134.924V134.934Z" fill="#587EEC"/>
<path d="M420.654 159.37C416.701 160.378 403.385 156.21 403.385 156.21C403.385 156.21 412.989 146.076 416.942 145.048C418.84 144.556 420.856 144.838 422.546 145.832C424.237 146.827 425.463 148.453 425.955 150.352C426.447 152.251 426.165 154.268 425.171 155.959C424.177 157.65 422.552 158.877 420.654 159.37Z" fill="#587EEC"/>
<path d="M421.007 97.311C422.659 101.045 434.212 108.901 434.212 108.901C434.212 108.901 436.176 95.0735 434.524 91.3394C433.701 89.5924 432.228 88.2367 430.419 87.5622C428.61 86.8876 426.609 86.9476 424.844 87.7293C423.079 88.5111 421.69 89.9526 420.973 91.7458C420.256 93.539 420.268 95.5418 421.007 97.3261V97.311Z" fill="#587EEC"/>
<path d="M401.043 126.146C403.737 129.215 417.104 133.236 417.104 133.236C417.104 133.236 414.847 119.454 412.153 116.385C411.517 115.639 410.739 115.028 409.865 114.585C408.991 114.143 408.037 113.879 407.06 113.809C406.083 113.738 405.102 113.863 404.173 114.175C403.245 114.488 402.388 114.982 401.652 115.629C400.915 116.275 400.315 117.062 399.886 117.943C399.456 118.824 399.205 119.781 399.149 120.76C399.092 121.738 399.23 122.718 399.556 123.643C399.881 124.568 400.386 125.418 401.043 126.146Z" fill="#587EEC"/>
<path d="M385.486 156.845C387.621 160.322 400.116 166.546 400.116 166.546C400.116 166.546 400.222 152.582 398.102 149.1C397.046 147.492 395.407 146.359 393.53 145.94C391.654 145.522 389.688 145.852 388.05 146.859C386.413 147.867 385.232 149.473 384.758 151.337C384.284 153.201 384.554 155.177 385.511 156.845H385.486Z" fill="#587EEC"/>
<path d="M370.82 48.0723C371.656 45.0034 372.664 41.9194 373.369 38.8101C372.523 41.9194 371.51 45.0135 370.82 48.0723Z" fill="url(#paint0_linear_4_6)"/>
<path d="M367.073 77.6327C367.003 77.5117 366.953 77.3908 366.897 77.2799C366.897 77.2295 366.847 77.1892 366.827 77.1388C366.717 77.1906 366.604 77.2361 366.489 77.2749C366.268 77.3606 366.041 77.4412 365.809 77.5067C365.578 77.5722 365.482 77.6075 365.306 77.6478C365.16 77.6982 365.01 77.7369 364.857 77.7637L364.898 77.8544C365.084 77.8141 365.265 77.7788 365.452 77.7284L365.502 78.3533C365.714 78.3533 365.91 78.3231 366.101 78.3231C366.192 78.3181 366.283 78.3181 366.373 78.3231C366.766 78.3231 367.109 78.3231 367.381 78.3231C367.275 78.0963 367.164 77.8594 367.073 77.6327ZM469.309 240.467C466.942 237.277 462.218 203.04 462.218 203.04C462.218 203.04 452.926 178.695 455.46 168.98C457.993 159.264 448.54 134.405 448.54 134.405C448.54 134.405 442.295 131.689 441.957 127.658C441.957 127.658 416.459 119.595 415.265 113.548C414.298 108.589 398.484 105.031 392.804 103.907C391.071 96.9129 389.329 90.3871 388.044 86.8243C387.697 85.7157 387.369 84.7582 387.067 84.0023C384.897 78.4591 378.188 77.9552 373.323 78.3986C373.113 77.4539 372.721 76.5589 372.17 75.7631C372.09 75.4895 371.93 75.2458 371.712 75.0626C371.607 74.9736 371.496 74.8927 371.379 74.8208C371.291 74.6574 371.175 74.5108 371.037 74.3874C370.899 74.2628 370.747 74.1546 370.584 74.0649C370.467 74.0015 370.345 73.946 370.221 73.8986C369.929 73.7874 369.627 73.7047 369.32 73.6516C368.961 73.5778 368.597 73.5307 368.232 73.5106C369.121 73.1215 369.913 72.5417 370.553 71.8123C370.989 71.3002 371.313 70.703 371.505 70.0586C371.665 69.5228 371.736 68.9646 371.717 68.4058C371.586 68.636 371.434 68.8537 371.264 69.0558C371.475 66.8234 370.297 64.5557 369.622 62.3334C368.804 59.4403 368.652 56.3993 369.178 53.4391C369.853 48.9743 371.525 44.4591 372.659 39.9137C372.661 39.8886 372.661 39.8632 372.659 39.8381C373.253 37.5808 373.621 35.2697 373.756 32.9393C373.953 28.2377 372.749 23.5461 370.815 19.2628C369.098 15.4682 366.565 11.7341 362.687 10.1921C359.806 9.02799 356.578 9.21444 353.475 9.02295C346.515 8.58957 339.878 6.14048 333.26 3.91312C326.642 1.68576 319.833 -0.340025 312.868 0.0479989C305.903 0.436023 298.736 3.79722 295.559 9.96529C294.551 11.8903 293.972 14.032 292.768 15.8411C290.512 19.2527 286.473 20.961 283.104 23.3143C279.735 25.6677 276.768 29.0087 275.55 32.9948C274.884 35.1423 274.79 37.4265 275.278 39.6214C275.387 40.1171 275.529 40.6052 275.701 41.0828C276.179 42.4143 276.924 43.6337 277.891 44.6657C278.621 45.4285 279.459 46.0789 280.379 46.5958C281.535 47.2366 282.771 47.718 284.056 48.0269C284.01 48.1781 283.965 48.3394 283.915 48.4956C283.834 48.7526 283.764 48.9995 283.688 49.2767C283.522 49.8965 283.366 50.5264 283.235 51.1614C283.23 51.2066 283.23 51.2522 283.235 51.2974C282.616 54.1637 282.306 57.088 282.308 60.0204C282.307 61.4072 282.378 62.7932 282.52 64.1728C284.534 84.6221 301.406 100.753 322.251 101.801C322.966 101.836 323.686 101.856 324.416 101.856C324.749 101.856 325.076 101.856 325.424 101.856C325.751 102.29 326.073 102.733 326.38 103.167C326.688 103.6 326.97 104.044 327.237 104.477L326.506 103.721L325.776 103.051C325.578 103.323 325.357 103.577 325.116 103.812C324.64 103.644 324.154 103.506 323.661 103.398C321.571 102.935 318.388 102.764 314.198 104.028C310.345 105.182 305.636 107.556 300.126 112.066L273.278 128.192L258.754 137.031L253.521 149.83C253.521 149.83 249.588 165.039 245.211 182.465C245.04 182.515 244.874 182.565 244.708 182.626C244.353 182.586 243.997 182.565 243.64 182.565C241.101 182.56 238.658 183.538 236.825 185.297C234.992 187.055 233.911 189.455 233.809 191.994C225.106 202.576 224.613 213.159 226.658 218.017C226.843 218.472 227.076 218.906 227.353 219.312C228.692 221.247 231.195 226.236 233.734 231.552C233.668 231.991 233.628 232.359 233.608 232.636C233.603 232.726 233.603 232.817 233.608 232.908C233.608 232.908 235.118 255.741 230.082 262.287C228.979 263.713 229.145 265.588 230.082 267.664C233.457 275.132 246.798 285.105 246.798 285.105C246.798 285.105 262.798 285.019 271.712 284.046C271.687 284.943 271.667 285.835 271.646 286.707C271.445 295.516 271.445 302.898 271.445 302.898L271.113 312.135C271.113 312.135 268.091 331.602 266.58 336.969C265.628 340.335 266.726 371.503 267.683 394.417H425.328C427.181 380.861 424.567 339.675 424.567 339.675C424.567 339.675 422.084 329.027 421.994 319.745C421.989 319.734 421.986 319.723 421.986 319.712C421.986 319.701 421.989 319.689 421.994 319.679C421.994 318.868 421.994 318.077 422.024 317.301L423.167 317.26L425.222 317.19H425.408C425.408 317.19 425.459 316.998 425.574 316.686C425.846 315.908 426.217 315.167 426.677 314.484C427.554 313.189 428.924 311.919 430.983 311.833C432.122 311.788 433.884 310.865 435.874 309.505C435.887 309.508 435.901 309.508 435.914 309.505C441.267 305.882 448.343 299.194 450.061 298.096C452.423 296.584 463.734 286.506 463.734 286.506C463.734 286.506 465.421 284.369 467.219 281.794L467.285 281.703C469.521 278.478 471.898 274.623 471.314 273.408C470.306 271.232 471.989 266.026 471.989 266.026C477.241 256.406 471.676 243.657 469.309 240.467ZM371.923 85.4688C371.972 85.6192 372.002 85.7748 372.014 85.9324C371.888 85.7661 371.762 85.5897 371.636 85.4284L371.515 85.2672L371.43 85.1462L371.621 84.8842C371.621 84.8842 371.621 84.8842 371.621 84.9195C371.754 85.0828 371.856 85.2689 371.923 85.4688ZM370.231 81.004C369.682 81.1148 369.249 81.2156 368.967 81.2912C368.609 80.6562 368.267 80.0213 367.96 79.3763C368.767 79.845 369.528 80.39 370.231 81.004ZM369.284 81.8002C369.283 81.7901 369.283 81.7799 369.284 81.7699L369.325 81.8002C369.531 81.9362 369.733 82.0672 369.919 82.2033C370.085 82.3242 370.236 82.4401 370.387 82.5611C370.286 82.7375 370.176 82.9189 370.065 83.065C369.889 82.7878 369.722 82.5208 369.561 82.2436C369.461 82.1328 369.37 81.9816 369.284 81.8002ZM366.263 75.5817C367.236 75.4856 368.216 75.4856 369.189 75.5817C369.325 75.5817 369.445 75.6069 369.566 75.627C369.839 75.6693 370.108 75.7385 370.367 75.8337C370.962 76.6668 371.329 77.6416 371.43 78.6607L371.158 78.701L370.891 78.7514C370.387 78.8371 369.884 78.9227 369.491 79.0034L368.987 79.1092C368.317 79.2553 367.93 79.3662 367.914 79.3712C367.849 79.2352 367.783 79.1092 367.713 78.9782C367.602 78.7615 367.486 78.5397 367.386 78.3231C367.285 78.1064 367.154 77.8594 367.048 77.6327C366.978 77.5117 366.927 77.3908 366.872 77.2799C366.872 77.2295 366.822 77.1892 366.801 77.1388C366.772 77.0854 366.747 77.0298 366.726 76.9725C366.419 76.3477 366.137 75.7228 365.865 75.108C365.834 75.0475 365.809 74.982 365.784 74.9215L366.167 74.8963V75.0274L366.263 75.5817ZM246.103 388.188C246.062 380.685 245.518 372.566 244.007 364.947C243.363 361.707 242.698 358.466 242.023 355.282C241.852 354.485 241.686 353.699 241.52 352.913L239.968 353.12H239.827C235.597 333.159 231.175 315.572 231.175 315.572C231.175 315.572 222.392 282.016 223.409 279.34C223.54 278.992 223.374 278.055 223.001 276.679C220.876 269.049 212.002 248.026 208.9 240.84C208.9 240.809 208.875 240.774 208.864 240.749C208.361 239.545 207.998 238.733 207.887 238.496L208.618 227.773L208.658 227.128L208.754 225.757L208.713 225.722L208.754 225.087C208.754 225.087 201.089 218.798 188.105 214.257C187.601 214.076 187.068 213.9 186.539 213.728C187.188 209.39 188.05 204.491 189.173 199.719C189.279 199.24 189.394 198.777 189.515 198.308C189.621 197.84 189.742 197.386 189.863 196.927C190.054 196.182 190.261 195.446 190.472 194.72C191.172 194.498 191.862 194.252 192.542 193.99L192.804 193.889C201.18 190.628 208.091 184.44 212.257 176.472C216.424 168.504 217.564 159.296 215.467 150.551C214.271 145.592 212.063 140.933 208.98 136.869C208.749 136.557 208.502 136.244 208.255 135.937C208.008 135.63 207.711 135.287 207.434 134.975C208.89 131.664 210.607 128.514 210.748 125.294C210.773 124.886 210.773 124.477 210.748 124.07V124.019C210.562 121.948 209.645 119.852 207.51 117.65C204.392 114.419 199.955 112.782 195.518 111.995C191.081 111.209 186.559 111.189 182.097 110.66C174.699 109.773 167.492 107.49 160.093 106.79C150.981 105.946 141.806 107.509 133.487 111.325C127.982 113.845 122.407 118.249 122.075 124.291C121.803 129.285 125.278 134.073 124.401 139.006C123.53 143.854 118.595 147.669 119.028 152.572C119.194 154.487 120.176 156.2 121.405 157.727C121.828 158.231 122.276 158.735 122.74 159.239C124.532 161.139 126.507 162.963 127.509 165.356C127.549 165.457 127.589 165.558 127.625 165.659C128.476 168.022 128.093 171.01 125.988 172.366C126 172.375 126.008 172.387 126.013 172.401C126.043 172.442 126.074 172.472 126.099 172.512C126.102 172.504 126.102 172.495 126.099 172.487C126.845 173.372 127.851 174 128.974 174.281L129.402 174.412C129.055 174.79 128.728 175.183 128.395 175.596L128.179 175.883C127.624 176.63 127.119 177.413 126.668 178.227C126.411 178.68 126.164 179.134 125.958 179.587C125.267 180.97 124.768 182.439 124.472 183.956C123.933 187.292 124.694 190.769 123.878 194.035C122.87 198.066 119.683 201.16 117.885 204.905C114.48 211.96 116.409 220.239 117.094 228.03C118.026 238.612 116.515 249.24 115.009 259.752C114.21 265.342 113.411 270.938 112.612 276.538C110.597 290.594 108.583 304.65 106.568 318.707C105.833 323.857 104.962 329.289 101.532 333.265H101.567C101.567 333.265 101.567 333.295 101.532 333.305C102.561 333.756 103.656 334.038 104.775 334.142C109.252 334.59 113.997 332.423 118.026 330.055C121.216 328.21 124.238 326.087 127.056 323.711C126.643 325.222 126.199 326.87 125.726 328.644C125.728 328.661 125.728 328.678 125.726 328.694C120.04 350.363 110.894 390.088 110.894 390.088C110.894 390.088 110.063 391.816 108.986 394.391H251.008C249.346 392.376 247.8 390.446 246.591 388.889L246.103 388.188ZM140.946 187.826C140.981 187.766 141.006 187.711 141.041 187.655C141.041 187.816 141.041 187.973 141.041 188.124C141.041 188.275 141.041 188.411 141.041 188.552C141.041 188.693 141.041 188.678 141.041 188.749C141.041 188.819 141.041 188.749 141.041 188.749C141.041 188.955 140.996 189.162 140.961 189.369C140.961 189.369 140.961 189.394 140.961 189.414L141.464 189.6L142.049 189.842C145.5 191.206 148.995 192.441 152.534 193.546C152.897 193.662 153.264 193.773 153.632 193.879L153.707 194.504C153.798 195.144 153.884 195.794 153.964 196.444C153.964 196.444 153.964 196.474 153.964 196.494C154.191 198.293 154.413 200.087 154.609 201.841C154.609 201.841 145.362 198.313 145.478 203.67C145.473 203.766 145.473 203.862 145.478 203.957C145.468 204.085 145.468 204.213 145.478 204.34C145.564 208.513 146.868 210.987 147.13 212.257C147.114 212.309 147.087 212.358 147.05 212.398C146.826 212.884 146.749 213.426 146.828 213.955C146.819 214.857 146.89 215.757 147.039 216.646C146.767 216.812 146.501 216.979 146.234 217.15C146.032 217.276 145.841 217.417 145.644 217.558C144.409 213.27 142.793 209.101 140.815 205.101C139.43 202.249 137.873 199.276 137.889 196.146C137.889 195.945 137.889 195.738 137.914 195.532C137.97 194.625 138.143 193.729 138.427 192.866C138.543 192.538 138.669 192.216 138.81 191.898C139.139 191.144 139.507 190.407 139.913 189.691C140.175 189.217 140.452 188.749 140.719 188.275C140.805 188.134 140.885 187.988 140.966 187.847L140.946 187.826ZM367.073 77.6327C367.003 77.5117 366.953 77.3908 366.897 77.2799C366.897 77.2295 366.847 77.1892 366.827 77.1388C366.717 77.1906 366.604 77.2361 366.489 77.2749C366.268 77.3606 366.041 77.4412 365.809 77.5067C365.578 77.5722 365.482 77.6075 365.306 77.6478L364.857 77.7637L364.898 77.8544C365.084 77.8141 365.265 77.7788 365.452 77.7284L365.502 78.3533C365.714 78.3533 365.91 78.3231 366.101 78.3231H366.373C366.766 78.3231 367.109 78.3231 367.381 78.3231C367.275 78.0963 367.164 77.8594 367.073 77.6327Z" fill="url(#paint1_linear_4_6)"/>
<path d="M257.031 151.65L254.01 152.985C254.01 152.985 234.313 229.552 234.313 235.74C234.313 241.928 276.078 276.362 276.078 276.362L282.595 232.348C282.595 232.348 273.238 131.417 257.031 151.65Z" fill="#E8F5FF"/>
<path d="M348.646 127.295L331.195 118.184C330.218 114.014 328.483 110.06 326.078 106.518C323.525 102.829 320.13 99.2058 315.9 97.316C305.208 92.5187 361.125 67.3374 361.125 67.3374C362.006 70.3624 363.043 73.3396 364.233 76.2569C367.114 83.3724 371.893 92.5741 378.052 95.1945C388.523 99.6543 348.646 127.295 348.646 127.295Z" fill="#FFB0B1"/>
<path opacity="0.1" d="M364.233 76.2569C361.844 84.6649 356.875 92.1095 350.029 97.5393C343.183 102.969 334.805 106.11 326.078 106.518C323.525 102.829 320.13 99.2058 315.9 97.316C305.208 92.5186 361.125 67.3374 361.125 67.3374C362.006 70.3624 363.043 73.3396 364.233 76.2569Z" fill="black"/>
<path d="M365.804 63.5429C365.806 71.789 363.364 79.8505 358.787 86.7078C354.21 93.5651 347.703 98.9102 340.09 102.067C332.476 105.224 324.098 106.051 316.015 104.443C307.932 102.835 300.507 98.8645 294.68 93.0339C288.852 87.2034 284.883 79.7745 283.275 71.6869C281.667 63.5992 282.492 55.2161 285.646 47.5977C288.8 39.9794 294.141 33.4681 300.994 28.8873C307.847 24.3065 315.903 21.862 324.144 21.863C329.622 21.8377 335.05 22.8984 340.116 24.984C345.181 27.0695 349.784 30.1386 353.657 34.0139C357.531 37.8893 360.598 42.494 362.683 47.5624C364.768 52.6307 365.829 58.0621 365.804 63.5429Z" fill="#FFB0B1"/>
<path d="M371.817 121.943L360.456 148.47L350.434 166.077H318.353L308.995 142.004L312.788 117.04H337.289L353.108 116.148L358.451 114.364L361.896 116.319L371.817 121.943Z" fill="#575A89"/>
<path opacity="0.1" d="M367.904 86.5824C367.904 86.5824 374.99 88.0942 368.645 93.2997C362.299 98.5053 340.406 115.059 340.406 115.059C340.406 115.059 348.097 121.913 346.505 129.94L371.984 115.73L376.516 92.9923C376.516 92.9923 377.025 86.1591 367.904 86.5824Z" fill="black"/>
<path opacity="0.1" d="M345.417 115.059L329.211 117.735C329.211 117.735 332.555 130.107 330.883 133.619C330.832 133.728 330.79 133.841 330.757 133.957L324.144 151.841L329.1 165.886L346.253 142.478L340.406 133.619C340.406 133.619 346.586 125.425 350.262 122.583C353.939 119.741 345.417 115.059 345.417 115.059Z" fill="black"/>
<path d="M345.417 114.369L329.211 117.04C329.211 117.04 332.555 129.411 330.883 132.924C330.832 133.033 330.79 133.146 330.757 133.261L324.144 151.146L329.1 165.19L346.253 141.768L340.406 132.908C340.406 132.908 346.586 124.715 350.262 121.872C353.939 119.03 345.417 114.369 345.417 114.369Z" fill="#DCE6F2"/>
<path d="M368.584 85.247C368.584 85.247 375.67 86.7588 369.32 91.9643C362.969 97.1699 340.406 115.059 340.406 115.059C340.406 115.059 348.762 120.577 347.175 128.6L372.654 114.394L377.186 91.6569C377.186 91.6569 377.69 84.8237 368.584 85.247Z" fill="#575A89"/>
<path opacity="0.1" d="M327.191 108.095C327.191 108.095 328.738 110.988 335.562 116.203C335.562 116.203 324.2 122.25 328.546 130.752L311.166 126.216L308.492 117.856L327.191 108.095Z" fill="black"/>
<path d="M326.521 107.43C326.521 107.43 328.067 110.322 334.892 115.538C334.892 115.538 323.53 121.555 327.876 130.081L310.501 125.546L307.827 117.191L326.521 107.43Z" fill="#575A89"/>
<path opacity="0.1" d="M371.817 121.943L360.456 148.47L350.454 166.077H318.353L308.995 142.004L312.783 117.04H319.597C319.486 122.865 321.611 129.709 321.475 132.253C321.243 136.436 327.71 159.002 327.71 159.002C327.71 159.002 341.242 137.101 346.586 135.151C349.945 133.926 357.061 123.737 361.891 116.319L371.817 121.943Z" fill="black"/>
<path d="M416.575 261.536L415.421 262.987C415.421 262.987 423.777 304.949 421.465 314.479C421.072 316.196 420.848 317.948 420.795 319.709V319.785C420.387 329.481 423.313 342.064 423.313 342.064C423.313 342.064 425.65 379.153 424.32 394.407H267.884C266.968 371.851 265.981 342.628 266.877 339.388C268.388 334.041 271.41 314.645 271.41 314.645L271.742 305.453C271.742 305.453 271.742 296.569 272.014 286.672C272.13 282.222 272.301 277.551 272.548 273.409C272.865 268.198 273.308 263.809 273.918 261.652C274.293 260.017 274.509 258.35 274.562 256.673C274.562 256.517 274.562 256.356 274.593 256.194C274.593 255.69 274.643 255.146 274.663 254.587C274.663 254.431 274.663 254.274 274.663 254.083C274.759 250.838 274.724 246.988 274.618 242.997C274.618 242.78 274.618 242.558 274.618 242.336C274.532 239.343 274.406 236.289 274.265 233.387C273.827 224.316 273.258 216.646 273.258 216.646L254.045 152.95L259.222 140.19L273.59 131.382L300.157 115.332C313.115 104.673 321.646 105.953 324.9 107.123C325.216 107.23 325.525 107.357 325.826 107.501C325.927 107.551 326.008 107.591 326.083 107.637C326.187 107.686 326.286 107.743 326.38 107.808C325.49 108.237 324.716 108.875 324.124 109.667C323.458 110.569 322.983 111.598 322.729 112.691C322.559 113.368 322.439 114.057 322.372 114.752C322.306 115.483 322.281 116.239 322.281 117C322.317 118.668 322.46 120.333 322.709 121.983C322.709 122.014 322.709 122.054 322.709 122.094C322.875 123.273 323.082 124.427 323.283 125.511C323.281 125.529 323.281 125.548 323.283 125.566C323.515 126.831 323.747 128 323.903 129.008C323.933 129.19 323.958 129.356 323.983 129.512C324.094 130.178 324.146 130.853 324.139 131.528C324.196 133.158 324.415 134.779 324.794 136.365C324.925 137.031 325.076 137.741 325.242 138.482C325.469 139.49 325.716 140.588 325.983 141.707C326.129 142.322 326.285 142.957 326.446 143.587C326.506 143.839 326.572 144.091 326.632 144.348L326.733 144.746C327.806 149.014 328.969 153.262 329.684 155.832C330.107 157.344 330.374 158.276 330.374 158.276C330.374 158.276 337.959 146.006 344.012 139.021C344.103 138.92 344.184 138.825 344.269 138.734C344.869 138.044 345.458 137.414 346.022 136.859C347.256 135.63 348.364 134.753 349.255 134.43C349.445 134.361 349.629 134.275 349.804 134.173C352.282 132.767 356.281 127.663 360.023 122.316C360.39 121.812 360.748 121.263 361.11 120.744C361.941 119.544 362.747 118.34 363.508 117.186C364.092 116.304 364.651 115.447 365.18 114.631C367.698 110.711 369.471 107.788 369.471 107.788L372.966 107.632L373.575 107.601H373.983L389.852 106.866C389.852 106.866 390.537 106.981 391.665 107.208C391.726 107.208 391.786 107.208 391.852 107.249C397.482 108.367 413.125 111.91 414.082 116.823C415.25 122.84 440.482 130.868 440.482 130.868C440.814 134.899 446.994 137.555 446.994 137.555C446.994 137.555 456.351 162.298 453.848 171.993C451.375 181.568 460.284 205.252 460.521 205.918L458.814 208.074L416.575 261.536Z" fill="#E8F5FF"/>
<path opacity="0.1" d="M367.899 84.8238C367.899 84.8238 383.345 80.4396 386.856 89.465C390.366 98.4903 398.218 134.939 398.218 134.939C398.218 134.939 377.831 138.784 372.487 134.939C369.353 132.657 365.474 131.642 361.624 132.097L350.096 139.953L346.692 138.946C346.692 138.946 365.134 111.512 369.143 102.189C373.152 92.8665 374.507 88.699 367.899 84.8238Z" fill="black"/>
<path d="M367.23 82.808C367.23 82.808 382.686 78.4239 386.211 87.4492C389.737 96.4745 397.573 132.924 397.573 132.924C397.573 132.924 377.191 136.769 371.843 132.924C368.71 130.642 364.833 129.626 360.985 130.081L349.447 137.938L346.042 136.93C346.042 136.93 364.485 109.496 368.494 100.173C372.502 90.8507 373.837 86.6933 367.23 82.808Z" fill="#E8F5FF"/>
<path opacity="0.1" d="M263.548 228.216C263.548 228.216 275.076 231.058 277.252 237.579C279.428 244.1 268.731 244.266 268.731 244.266C268.731 244.266 262.214 232.731 263.548 228.216Z" fill="black"/>
<path opacity="0.1" d="M306.487 276.362C306.487 276.362 278.254 334.207 284.771 339.725C291.288 345.243 306.487 276.362 306.487 276.362Z" fill="black"/>
<path opacity="0.1" d="M345.417 233.734C345.417 233.734 367.975 289.922 363.462 298.6C358.95 307.278 373.152 298.6 373.152 298.6L345.417 233.734Z" fill="black"/>
<path d="M376.829 289.237C376.829 289.237 300.64 292.916 322.865 316.656C345.09 340.396 390.699 317.663 390.699 317.663L376.829 289.237Z" fill="#FFB0B1"/>
<path opacity="0.1" d="M365.804 63.5428C365.811 69.0105 364.738 74.4256 362.647 79.477C361.947 79.5576 361.247 79.608 360.572 79.6382C359.564 77.426 360.103 74.8711 360.123 72.4371C360.144 70.0031 359.247 67.1408 356.905 66.4857C352.237 65.1705 349.013 73.9035 344.41 72.3262C340.885 71.1269 341.807 65.7752 339.777 62.6861C338.17 60.2421 334.952 59.5517 332.449 58.0197C327.126 54.7492 327.287 49.5185 324.814 44.5699C322.226 39.3845 316.756 40.9164 312.007 43.9753C308.401 46.3034 305.289 49.4227 301.431 51.2772C298.092 52.8897 294.34 53.4743 290.638 53.56C288.359 53.6483 286.08 53.4073 283.87 52.8444C286.469 43.0651 292.535 34.5658 300.935 28.9314C309.336 23.297 319.498 20.9121 329.526 22.2216C339.554 23.5311 348.764 28.4455 355.438 36.0484C362.112 43.6512 365.795 53.4235 365.799 63.5428H365.804Z" fill="black"/>
<path d="M312.022 42.64C308.411 44.9681 305.304 48.0824 301.446 49.9469C298.107 51.5545 294.355 52.139 290.653 52.2247C286.121 52.3255 281.241 51.5293 278.143 48.2537C275.298 45.2302 274.618 40.5789 275.822 36.613C277.025 32.6471 279.911 29.3565 283.3 26.9729C286.69 24.5893 290.623 22.9415 292.869 19.5299C294.058 17.7258 294.632 15.5992 295.619 13.6793C298.777 7.53641 305.878 4.21048 312.742 3.79726C319.607 3.38404 326.411 5.42999 332.948 7.64727C339.485 9.86455 346.072 12.3036 352.972 12.7621C356.044 12.9536 359.237 12.7621 362.088 13.9262C365.92 15.4833 368.433 19.2074 370.146 22.9969C372.064 27.2702 373.258 31.9366 373.057 36.6029C372.634 46.5656 366.056 56.3418 368.947 65.8862C369.713 68.431 371.148 71.0414 370.382 73.5862C369.264 77.3001 364.475 78.1467 360.602 78.3231C359.595 76.1109 360.134 73.5509 360.154 71.122C360.174 68.6931 359.277 65.8257 356.941 65.1706C352.267 63.8654 349.044 72.5834 344.451 71.0111C340.951 69.8067 341.857 64.4601 339.822 61.371C338.216 58.9219 334.993 58.2366 332.495 56.7046C327.171 53.4341 327.332 48.2034 324.86 43.2548C322.251 38.0442 316.776 39.5761 312.022 42.64Z" fill="#575A89"/>
<path d="M238.145 234.399L234.303 235.74C234.303 235.74 235.813 258.477 230.777 264.998C225.741 271.519 247.316 287.73 247.316 287.73C247.316 287.73 276.889 287.564 277.725 285.21C278.561 282.857 276.214 243.082 276.214 243.082C276.214 243.082 260.34 236.894 261.675 227.032C261.675 227.032 256.83 250.268 249.648 249.265C242.466 248.263 234.313 242.261 238.145 234.399Z" fill="#E8F5FF"/>
<path opacity="0.1" d="M250.963 256.3C256.562 256.3 261.101 252.147 261.101 247.023C261.101 241.899 256.562 237.746 250.963 237.746C245.364 237.746 240.825 241.899 240.825 247.023C240.825 252.147 245.364 256.3 250.963 256.3Z" fill="black"/>
<path d="M262.047 235.07C262.047 235.07 260.033 173.55 242.497 187.257C224.961 200.964 224.789 217.357 228.128 222.199C231.467 227.042 242.174 251.286 242.174 251.286C243.849 252.257 245.73 252.818 247.663 252.921C249.596 253.025 251.526 252.669 253.295 251.882C255.064 251.095 256.621 249.901 257.84 248.396C259.058 246.89 259.903 245.118 260.305 243.223L262.047 235.07Z" fill="#FFB0B1"/>
<path opacity="0.1" d="M371.44 79.2402C371.358 78.9699 371.201 78.7286 370.986 78.5448C370.12 77.7536 368.257 77.4764 365.447 77.7183L365.562 79.0487C369.309 78.7262 370.05 79.472 370.145 79.598V79.724L370.261 79.8903C370.728 80.5185 371.059 81.2375 371.233 82.0011C371.406 82.7648 371.418 83.5562 371.268 84.3248C370.448 88.4318 365.406 91.7023 365.356 91.7376L365.235 91.8082L365.16 91.9241C362.984 95.1542 350.68 104.27 347.462 106.629L347.18 106.306C345.74 107.556 333.079 118.647 332.394 122.895C331.95 125.561 328.949 126.594 327.861 126.882C326.713 126.01 322.986 123.042 321.047 119.716C319.229 116.586 326.547 110.479 327.191 108.095L326.184 107.062C326.078 107.445 316.681 116.234 319.294 120.724C321.389 124.327 325.217 127.411 326.557 128.429C326.129 132.319 323.464 155.162 319.37 160.574C314.283 167.302 310.008 201.206 310.481 213.043C310.899 223.56 308.154 243.425 298.988 251.956C297.401 253.498 295.487 254.661 293.388 255.359C291.289 256.057 289.059 256.272 286.866 255.988H286.755H286.644C286.513 255.988 273.218 257.348 262.047 247.925C252.907 240.23 247.729 227.672 246.652 210.589H246.43L246.339 205.615C248.818 205.228 251.05 203.895 252.566 201.896C254.083 199.897 254.766 197.387 254.472 194.894C254.179 192.402 252.931 190.12 250.991 188.529C249.051 186.937 246.57 186.16 244.07 186.361C241.569 186.561 239.244 187.724 237.582 189.604C235.92 191.484 235.052 193.935 235.158 196.443C235.265 198.951 236.339 201.319 238.154 203.051C239.97 204.783 242.385 205.744 244.894 205.731H245.005L245.095 210.675L244.652 210.705C245.76 228.342 251.199 241.389 260.768 249.447C268.041 255.477 277.331 258.519 286.76 257.958C287.429 258.031 288.102 258.068 288.775 258.069C293.097 258.091 297.255 256.418 300.358 253.408C310.013 244.413 312.949 223.817 312.49 212.942C311.987 200.399 316.474 167.715 320.976 161.763C325.388 155.923 328.062 133.165 328.531 128.756C330.127 128.308 333.738 126.892 334.353 123.213C334.796 120.552 343.252 112.353 348.454 107.813L348.298 107.631C351.098 105.586 359.806 99.1353 364.122 94.993C365.462 93.708 366.791 92.4229 368.181 91.1984C369.853 89.7168 371.979 87.3635 372.538 84.5818C372.728 83.6636 372.729 82.7161 372.54 81.7975C372.352 80.8789 371.977 80.0086 371.44 79.2402Z" fill="black"/>
<path d="M326.386 128.111C326.174 127.965 321.158 124.372 318.645 120.048C316.036 115.558 325.434 106.775 325.534 106.392L326.542 107.425C325.902 109.803 318.584 115.916 320.403 119.04C322.694 122.986 327.519 126.438 327.569 126.473L326.386 128.111Z" fill="#353146"/>
<path d="M346.808 107.606L346.022 106.523C346.183 106.407 362.002 94.9578 364.495 91.2539L364.575 91.143L364.691 91.0675C364.742 91.0322 369.783 87.7667 370.604 83.6547C370.755 82.8869 370.744 82.0959 370.57 81.3329C370.397 80.5699 370.065 79.8518 369.597 79.2252L369.481 79.0538V78.9329C369.38 78.8019 368.64 78.0611 364.893 78.3836L364.777 77.0482C367.592 76.8063 369.451 77.0835 370.317 77.8746C370.532 78.0603 370.691 78.3031 370.775 78.5751C371.32 79.3413 371.702 80.211 371.897 81.1305C372.093 82.0501 372.099 83 371.913 83.9218C371.354 86.7085 369.234 89.0618 367.557 90.5383C366.172 91.7629 364.837 93.058 363.503 94.3329C358.441 99.1857 347.362 107.208 346.808 107.606Z" fill="#E8F5FF"/>
<path d="M245.689 203.861L244.355 203.885L244.504 212.002L245.838 211.978L245.689 203.861Z" fill="#E8F5FF"/>
<path d="M244.244 205.091C249.626 205.091 253.989 200.725 253.989 195.34C253.989 189.955 249.626 185.589 244.244 185.589C238.862 185.589 234.499 189.955 234.499 195.34C234.499 200.725 238.862 205.091 244.244 205.091Z" fill="#587EEC"/>
<path d="M244.244 203.438C248.714 203.438 252.338 199.813 252.338 195.34C252.338 190.868 248.714 187.242 244.244 187.242C239.774 187.242 236.151 190.868 236.151 195.34C236.151 199.813 239.774 203.438 244.244 203.438Z" fill="#E8F5FF"/>
<path d="M288.14 257.419C287.467 257.42 286.795 257.385 286.126 257.313C276.697 257.869 267.409 254.827 260.134 248.802C250.565 240.739 245.136 227.707 244.018 210.055L246.032 209.929C247.11 227.012 252.287 239.575 261.433 247.265C272.603 256.663 285.894 255.328 286.025 255.328H286.136H286.247C288.441 255.611 290.671 255.395 292.77 254.697C294.87 253.999 296.785 252.837 298.374 251.296C307.535 242.765 310.28 222.9 309.862 212.383C309.358 200.536 313.634 166.631 318.725 159.909C323.182 154.018 325.947 127.466 325.978 127.199L326.053 126.443L326.798 126.312C326.844 126.312 331.195 125.486 331.739 122.23C332.444 117.987 345.085 106.896 346.52 105.641L347.835 107.153C342.612 111.688 334.156 119.892 333.733 122.558C333.119 126.247 329.508 127.658 327.916 128.101C327.413 132.515 324.759 155.268 320.362 161.108C315.86 167.06 311.372 199.744 311.876 212.287C312.309 223.162 309.403 243.762 299.749 252.752C296.64 255.77 292.471 257.446 288.14 257.419Z" fill="#353146"/>
<g opacity="0.1">
<path opacity="0.1" d="M370.095 51.63C370.921 48.5762 371.918 45.5022 372.613 42.4081C371.782 45.5173 370.78 48.5762 370.095 51.63Z" fill="black"/>
<path opacity="0.1" d="M361.67 75.627C360.662 73.4148 361.201 70.8549 361.221 68.4259C361.241 65.997 360.345 63.1548 358.008 62.4745C353.335 61.1694 350.111 69.8923 345.518 68.3151C341.993 67.1107 342.925 61.764 340.89 58.6749C339.283 56.2258 336.065 55.5405 333.567 54.0086C328.239 50.7381 328.4 45.5073 325.932 40.5587C323.339 35.3683 317.874 36.9002 313.12 39.9641C309.509 42.2922 306.402 45.4115 302.544 47.271C299.205 48.8786 295.453 49.4631 291.751 49.5488C287.244 49.6546 282.338 48.8534 279.241 45.5778C276.854 43.0582 275.993 39.3644 276.486 35.9024C276.401 36.1393 276.325 36.3761 276.25 36.613C275.041 40.5789 275.746 45.2402 278.571 48.2537C281.669 51.5292 286.574 52.3254 291.081 52.2246C294.788 52.139 298.535 51.5544 301.879 49.9469C305.747 48.0824 308.854 44.9681 312.455 42.6399C317.209 39.5761 322.679 38.0441 325.267 43.2346C327.735 48.1832 327.579 53.4139 332.902 56.6844C335.421 58.1962 338.619 58.9017 340.23 61.3508C342.245 64.4499 341.353 69.7865 344.859 70.9909C349.447 72.5632 352.67 63.8452 357.343 65.1504C359.68 65.8055 360.582 68.6779 360.557 71.1018C360.531 73.5257 360.008 76.0907 361.005 78.3029C364.878 78.1265 369.667 77.295 370.79 73.566C370.945 73.0308 371.016 72.475 371.002 71.9181C369.365 74.7452 365.155 75.4708 361.67 75.627Z" fill="black"/>
</g>
<path opacity="0.1" d="M452.69 199.795L458.537 205.983C458.537 205.983 463.216 240.084 465.552 243.274C467.889 246.464 473.409 259.152 468.227 268.682C468.227 268.682 466.555 273.867 467.557 276.039C468.559 278.211 460.043 289.081 460.043 289.081C460.043 289.081 448.847 299.109 446.505 300.616C444.163 302.122 431.804 314.156 427.629 314.322C423.454 314.489 422.09 319.674 422.09 319.674L398.53 320.511C398.53 320.511 385.516 319.83 382.686 321.67C382.686 321.67 384.197 301.775 369.657 288.733L388.201 282.046C388.201 282.046 395.221 279.022 397.392 275.863C398.757 273.926 400.694 272.465 402.932 271.685C402.932 271.685 408.109 268.006 408.275 266.001C408.441 263.995 414.606 261.536 414.606 261.536L411.116 231.729L412.954 182.243C412.954 182.243 418.801 140.78 431.165 143.123C443.529 145.466 452.69 199.795 452.69 199.795Z" fill="black"/>
<path d="M454.704 199.795L460.551 205.983C460.551 205.983 465.23 240.084 467.567 243.274C469.904 246.464 475.423 259.152 470.241 268.682C470.241 268.682 468.574 273.867 469.576 276.039C470.578 278.211 462.057 289.081 462.057 289.081C462.057 289.081 450.862 299.109 448.52 300.616C446.178 302.122 433.819 314.156 429.644 314.322C425.469 314.489 424.104 319.674 424.104 319.674L400.544 320.511C400.544 320.511 387.521 319.83 384.7 321.67C384.7 321.67 386.211 301.775 371.672 288.733L390.215 282.046C390.215 282.046 397.236 279.022 399.406 275.863C400.772 273.926 402.709 272.465 404.946 271.685C404.946 271.685 410.123 268.006 410.289 266.001C410.456 263.995 416.62 261.536 416.62 261.536L413.13 231.729L414.968 182.243C414.968 182.243 420.815 140.78 433.179 143.123C445.543 145.466 454.704 199.795 454.704 199.795Z" fill="#E8F5FF"/>
<path opacity="0.1" d="M432.968 249.784C432.968 249.784 450.177 245.249 454.689 250.792C459.202 256.336 432.968 249.784 432.968 249.784Z" fill="black"/>
<path opacity="0.1" d="M428.959 257.389C434.806 261.486 452.851 261.652 452.851 261.652L428.959 257.389Z" fill="black"/>
<path opacity="0.1" d="M437.813 277.868C438.316 278.035 450.217 290.744 455.213 286.899C460.209 283.054 437.813 277.868 437.813 277.868Z" fill="black"/>
<path opacity="0.1" d="M277.539 171.207C277.539 171.207 281.034 195.285 279.312 205.091C277.589 214.898 283.875 227.047 283.875 227.047L277.539 171.207Z" fill="black"/>
<path d="M200.162 180.998C196.133 184.158 193.192 191.636 191.061 199.855C187.345 214.192 186.131 230.817 186.131 230.817C186.131 230.817 154.05 223.459 156.387 220.118C157.857 218.017 155.883 202.183 154.236 190.704C153.254 183.921 152.378 178.655 152.378 178.655C152.378 178.655 211.191 172.301 200.162 180.998Z" fill="#FFB0B1"/>
<path opacity="0.1" d="M200.162 180.328C196.133 183.493 193.192 190.966 191.061 199.185C184.67 201.127 177.872 201.302 171.389 199.692C164.905 198.082 158.979 194.746 154.236 190.039C153.254 183.251 152.378 177.985 152.378 177.985C152.378 177.985 211.191 171.635 200.162 180.328Z" fill="black"/>
<path d="M217.406 162.318C217.409 171.083 214.314 179.566 208.667 186.267C203.02 192.967 195.186 197.453 186.552 198.93C177.917 200.407 169.039 198.78 161.488 194.337C153.938 189.894 148.201 182.921 145.294 174.653C142.388 166.385 142.498 157.354 145.605 149.159C148.713 140.965 154.618 134.134 162.275 129.877C169.932 125.619 178.847 124.21 187.443 125.897C196.038 127.584 203.76 132.26 209.242 139.097C214.525 145.682 217.404 153.873 217.406 162.318Z" fill="#FFB0B1"/>
<path opacity="0.1" d="M246.656 394.407H236.08L235.189 375.716L234.257 356.37C234.257 356.37 236.659 356.012 240.487 355.478L242.033 355.271H242.159C242.995 359.197 243.821 363.229 244.617 367.255C245.941 374.403 246.631 381.654 246.677 388.924C246.677 389.428 246.677 389.932 246.677 390.405C246.707 391.751 246.677 393.096 246.656 394.407Z" fill="black"/>
<path d="M244.627 394.407H111.992C112.566 393.101 112.949 392.31 112.949 392.31C112.949 392.31 123.56 345.858 128.954 326.205C128.956 326.188 128.956 326.171 128.954 326.155C129.628 323.485 130.442 320.852 131.392 318.268C131.453 318.092 131.533 317.924 131.629 317.764C134.298 313.42 137.642 308.739 132.963 302.052C128.284 295.365 129.941 265.94 129.941 265.94C129.941 265.94 135.622 240.86 141.636 227.486C142.548 225.414 143.843 223.533 145.453 221.942C145.976 221.43 146.535 220.955 147.125 220.521C147.574 220.184 148.041 219.873 148.525 219.589L148.621 219.529C151.147 218.096 153.952 217.224 156.845 216.974C158.9 216.759 160.975 216.816 163.014 217.145C172.765 218.576 180.571 220.97 186.776 223.696C203.592 231.089 208.683 240.996 208.784 241.203L208.824 241.288C209.499 242.865 219.37 265.925 222.926 276.684C223.847 279.486 224.351 281.456 224.15 281.995C223.142 284.666 231.835 318.102 231.835 318.102C231.835 318.102 235.864 334.228 239.893 353.13C240.069 353.916 240.235 354.702 240.396 355.498C241.117 358.93 241.832 362.427 242.522 365.92C243.859 373.117 244.548 380.419 244.582 387.74C244.656 390.021 244.671 392.243 244.627 394.407Z" fill="#EB5569"/>
<path opacity="0.1" d="M156.054 205.474C156.054 205.474 146.904 201.947 147.014 207.298C147.125 212.65 149.245 215.21 148.576 215.991C147.906 216.772 148.908 221.454 148.908 221.454C148.908 221.454 161.272 221.454 166.953 224.014C172.634 226.574 193.574 231.703 196.249 233.266C198.923 234.828 208.839 241.832 208.839 241.832L209.731 228.569C209.731 228.569 199.482 220.098 182.666 215.754C165.85 211.41 156.054 205.474 156.054 205.474Z" fill="black"/>
<path d="M156.054 204.804C156.054 204.804 146.904 201.276 147.014 206.628C147.125 211.98 149.245 214.54 148.576 215.321C147.906 216.102 148.908 220.783 148.908 220.783C148.908 220.783 161.272 220.783 166.953 223.348C172.634 225.913 193.574 231.038 196.249 232.595C198.923 234.153 208.839 241.162 208.839 241.162L209.741 227.939C209.741 227.939 199.492 219.468 182.676 215.124C165.86 210.78 156.054 204.804 156.054 204.804Z" fill="#EB5569"/>
<path opacity="0.1" d="M183.678 236.723C183.678 236.723 201.164 255.665 200.273 260.911C199.381 266.157 183.678 236.723 183.678 236.723Z" fill="black"/>
<path opacity="0.1" d="M155.274 305.151C155.274 305.151 142.457 316.968 138.679 317.638C134.902 318.309 141.575 320.536 145.916 318.757C150.258 316.978 159.514 312.297 159.514 312.297L155.274 305.151Z" fill="black"/>
<path d="M249.834 394.407H219.944C215.764 390.778 211.811 387.417 209.292 385.396C205.263 382.161 202.358 377.399 200.504 373.569C200.086 372.697 199.724 371.881 199.416 371.14C198.866 369.864 198.382 368.561 197.966 367.235L220.1 354.082C221.324 355.123 222.473 356.248 223.54 357.449L223.807 357.756C225.036 359.207 226.119 360.855 226.214 362.206C226.325 363.778 230.697 369.86 235.164 375.701C239.696 381.642 244.34 387.321 244.647 387.704C244.647 387.704 245.412 388.748 246.661 390.35C247.543 391.509 248.631 392.9 249.834 394.407Z" fill="#FFB0B1"/>
<path opacity="0.1" d="M209.242 139.097C208.18 141.495 207.228 143.985 207.087 146.656C206.689 154.366 207.334 171.605 198.802 175.475C194.577 177.38 190.054 173.198 185.421 173.097C182.087 173.026 179.03 175.143 176.995 177.788C174.961 180.434 173.696 183.573 172.221 186.567C170.878 189.284 169.33 191.895 167.593 194.378C167.073 195.137 166.501 195.86 165.88 196.539C160.678 194.343 156.046 190.987 152.336 186.728C148.626 182.469 145.937 177.419 144.473 171.962C143.01 166.506 142.81 160.787 143.89 155.241C144.97 149.696 147.301 144.47 150.704 139.963C154.108 135.455 158.496 131.784 163.532 129.23C168.568 126.676 174.121 125.306 179.767 125.225C185.413 125.143 191.002 126.352 196.11 128.76C201.218 131.167 205.71 134.71 209.242 139.117V139.097Z" fill="black"/>
<path d="M206.417 145.295C206.014 153.005 206.664 170.244 198.127 174.11C193.902 176.014 189.379 171.837 184.746 171.736C181.412 171.66 178.36 173.782 176.32 176.423C174.281 179.063 173.027 182.208 171.546 185.206C170.202 187.923 168.655 190.534 166.918 193.017C165.88 194.488 164.732 195.965 163.135 196.791C160.355 198.243 156.986 197.426 154.005 196.494C150.137 195.274 146.326 193.9 142.572 192.372C142.658 191.805 142.702 191.232 142.703 190.659C142.592 190.87 142.472 191.067 142.351 191.278L142.114 191.692C141.686 192.447 141.268 193.203 140.885 193.979C140.739 194.277 140.598 194.584 140.472 194.892C139.966 196.035 139.648 197.254 139.53 198.5C139.274 201.861 140.931 205.051 142.401 208.074C148.057 219.77 151.552 233.447 147.296 245.718C145.453 251.054 142.26 255.796 139.928 260.951C135.852 270.082 134.652 280.238 136.489 290.068C137.652 296.176 139.984 302.223 139.41 308.416C138.402 319.074 129.216 327.006 120.015 332.459C115.044 335.392 108.96 338.002 103.682 335.684C107.047 331.753 107.913 326.316 108.638 321.186C110.622 307.193 112.612 293.194 114.606 279.188C115.402 273.615 116.196 268.042 116.988 262.468C118.469 251.997 119.97 241.409 119.043 230.872C118.368 223.106 116.464 214.862 119.829 207.832C121.606 204.108 124.774 201.024 125.761 197.013C126.572 193.753 125.817 190.286 126.351 186.965C126.643 185.454 127.137 183.989 127.821 182.611C128.692 180.74 129.828 179.006 131.195 177.461C129.846 177.068 128.587 176.528 127.821 175.4C129.987 173.989 130.314 170.809 129.332 168.42C128.35 166.032 126.386 164.212 124.618 162.328C122.85 160.443 121.148 158.246 120.927 155.676C120.498 150.783 125.384 146.993 126.245 142.166C127.116 137.252 123.671 132.475 123.948 127.501C124.271 121.489 129.79 117.12 135.24 114.586C143.463 110.777 152.546 109.212 161.569 110.05C168.912 110.746 176.018 113.018 183.341 113.9C187.758 114.404 192.235 114.455 196.621 115.231C201.008 116.007 205.405 117.644 208.492 120.865C216.63 129.356 206.88 136.345 206.417 145.295Z" fill="#575A89"/>
<path opacity="0.1" d="M199.608 373.574C197.039 372.46 192.366 373.126 184.343 370.682C176.32 368.238 174.774 357.191 174.774 357.191V357.156C174.678 356.904 173.933 355.261 168.887 349.507C163.311 343.152 151.26 311.057 151.26 311.057C151.26 311.057 140.573 299.572 140.91 295.339C141.248 291.106 139.012 279.844 139.233 267.245C139.455 254.647 163.291 246.292 163.291 246.292C209.187 238.154 198.379 291.096 197.155 295.108C195.931 299.119 202.282 309.953 202.282 309.953C201.386 314.67 205.958 321.972 205.958 321.972C205.958 321.972 207.066 328.432 207.293 330.886C207.306 331 207.331 331.111 207.369 331.219C208.104 333.532 214.097 335.628 216.535 336.903C219.098 338.244 227.342 349.945 227.342 349.945C229.12 358.537 202.166 374.703 199.608 373.574Z" fill="black"/>
<path d="M200.943 371.558C198.379 370.44 193.7 371.11 185.683 368.661C177.665 366.212 176.114 355.176 176.114 355.176V355.14C176.023 354.883 175.273 353.246 170.226 347.491C164.651 341.136 152.6 309.036 152.6 309.036C152.6 309.036 141.913 297.557 142.245 293.324C142.577 289.091 140.351 277.828 140.573 265.24C140.795 252.652 164.616 244.302 164.616 244.302C210.511 236.163 199.704 289.106 198.48 293.117C197.256 297.128 203.607 307.963 203.607 307.963C202.71 312.679 207.283 319.981 207.283 319.981C207.283 319.981 208.391 326.442 208.623 328.896C208.631 329.009 208.655 329.121 208.693 329.228C209.429 331.542 215.422 333.638 217.864 334.913C220.423 336.248 228.672 347.954 228.672 347.954C230.46 356.531 203.506 372.697 200.943 371.558Z" fill="#EB5569"/>
<path opacity="0.1" d="M165.523 271.942C165.523 271.942 185.572 293.107 190.805 293.107C196.037 293.107 165.523 271.942 165.523 271.942Z" fill="black"/>
<path d="M200.942 371.558C198.379 370.44 193.7 371.11 185.683 368.661C177.665 366.212 176.114 355.176 176.114 355.176V355.141C181.427 351.613 194.884 341.65 200.187 338.007C203.919 335.452 206.966 331.698 208.749 329.208C209.484 331.521 215.477 333.618 217.92 334.893C220.478 336.228 228.727 347.934 228.727 347.934C230.46 356.531 203.506 372.697 200.942 371.558Z" fill="#FF748E"/>
<g opacity="0.1">
<path opacity="0.1" d="M127.851 175.455C127.876 175.495 127.912 175.531 127.942 175.571C128.093 175.379 128.249 175.188 128.41 175.007C128.239 175.174 128.052 175.324 127.851 175.455Z" fill="black"/>
<path opacity="0.1" d="M139.535 198.555C139.747 195.758 141.243 193.294 142.643 190.835C141.726 190.482 140.81 190.124 139.903 189.752C139.989 189.186 140.033 188.615 140.034 188.043C138.619 190.563 137.078 193.042 136.861 195.879C136.604 199.246 138.261 202.43 139.732 205.454C145.393 217.145 148.883 230.822 144.627 243.097C142.779 248.429 139.591 253.176 137.259 258.331C133.184 267.46 131.986 277.615 133.824 287.443C134.978 293.556 137.314 299.598 136.74 305.791C135.733 316.449 126.552 324.381 117.346 329.828C113.584 332.056 109.187 334.097 104.982 333.95C104.592 334.577 104.158 335.175 103.682 335.739C108.965 338.073 115.044 335.447 120.015 332.504C129.226 327.062 138.427 319.15 139.435 308.472C140.009 302.279 137.672 296.236 136.514 290.124C134.675 280.297 135.87 270.143 139.938 261.012C142.255 255.862 145.478 251.11 147.306 245.778C151.562 233.503 148.067 219.826 142.411 208.135C140.946 205.091 139.279 201.921 139.535 198.555Z" fill="black"/>
<path opacity="0.1" d="M208.482 120.925C207.986 120.417 207.454 119.945 206.89 119.514C212.994 127.436 204.181 134.168 203.743 142.695C203.35 150.405 203.994 167.649 195.458 171.509C191.238 173.419 186.71 169.237 182.082 169.136C178.743 169.065 175.691 171.187 173.651 173.827C171.611 176.468 170.357 179.612 168.882 182.606C167.535 185.322 165.987 187.933 164.248 190.417C163.241 191.893 162.063 193.365 160.461 194.196C157.691 195.642 154.322 194.831 151.335 193.894C148.431 192.98 145.554 191.972 142.703 190.87C142.697 191.395 142.654 191.919 142.572 192.437C146.329 193.969 150.142 195.343 154.01 196.559C156.991 197.497 160.36 198.308 163.135 196.862C164.732 196.03 165.89 194.554 166.923 193.077C168.662 190.597 170.209 187.988 171.551 185.272C173.032 182.278 174.281 179.129 176.325 176.488C178.37 173.847 181.417 171.731 184.751 171.802C189.384 171.902 193.912 176.085 198.132 174.175C206.669 170.315 206.019 153.071 206.417 145.36C206.88 136.396 216.63 129.411 208.482 120.925Z" fill="black"/>
</g>
<path opacity="0.1" d="M142.119 191.697C141.691 192.453 141.273 193.208 140.89 193.984C140.744 194.282 140.603 194.589 140.477 194.897C137.838 192.236 131.412 185.912 127.826 183.951C128.698 182.081 129.834 180.347 131.2 178.801C131.2 178.801 139.747 183.321 142.119 191.697Z" fill="black"/>
<path d="M142.356 191.284C140.377 182.319 131.2 177.466 131.2 177.466C129.833 179.011 128.697 180.745 127.826 182.616C131.608 184.687 138.579 191.631 140.89 193.985L142.356 191.284Z" fill="#EB5569"/>
</g>
<defs>
<filter id="filter0_d_4_6" x="0.432373" y="0" width="555" height="402.417" filterUnits="userSpaceOnUse" color-interpolation-filters="sRGB">
<feFlood flood-opacity="0" result="BackgroundImageFix"/>
<feColorMatrix in="SourceAlpha" type="matrix" values="0 0 0 0 0 0 0 0 0 0 0 0 0 0 0 0 0 0 127 0" result="hardAlpha"/>
<feOffset dy="4"/>
<feGaussianBlur stdDeviation="2"/>
<feComposite in2="hardAlpha" operator="out"/>
<feColorMatrix type="matrix" values="0 0 0 0 0 0 0 0 0 0 0 0 0 0 0 0 0 0 0.25 0"/>
<feBlend mode="normal" in2="BackgroundImageFix" result="effect1_dropShadow_4_6"/>
<feBlend mode="normal" in="SourceGraphic" in2="effect1_dropShadow_4_6" result="shape"/>
</filter>
<linearGradient id="paint0_linear_4_6" x1="372.094" y1="48.0723" x2="372.094" y2="38.8101" gradientUnits="userSpaceOnUse">
<stop stop-color="#808080" stop-opacity="0.25"/>
<stop offset="0.54" stop-color="#808080" stop-opacity="0.12"/>
<stop offset="1" stop-color="#808080" stop-opacity="0.1"/>
</linearGradient>
<linearGradient id="paint1_linear_4_6" x1="231054" y1="331838" x2="231054" y2="23136.5" gradientUnits="userSpaceOnUse">
<stop stop-color="#808080" stop-opacity="0.25"/>
<stop offset="0.54" stop-color="#808080" stop-opacity="0.12"/>
<stop offset="1" stop-color="#808080" stop-opacity="0.1"/>
</linearGradient>
</defs>
</svg>
